<?xml version="1.0" encoding="UTF-8"?><!DOCTYPE svg PUBLIC "-//W3C//DTD SVG 1.1 Tiny//EN" "http://www.w3.org/Graphics/SVG/1.1/DTD/svg11-tiny.dtd"><svg baseProfile="tiny" xmlns="http://www.w3.org/2000/svg" width="700" height="100" preserveAspectRatio="xMaxYMax meet" viewBox="0 0 700 100"><g id="chair" transform="translate(0,0)"><path d="M75 62.5l-.8-15.4-13-5s-1.4-25.1-1.4-26c0-.8-.3-2.1-2.2-2.2-1.2-.1-23.5 1.1-23.5 1.1s-1.1-.1-1.1 1.1V70.9l2.2 2.3 4.2-1.3v-3.7l4.8 3.8v7.9l2.2 1.1 4.5-1.1V55.2h.1l5.2-.6v14.1l3.6 2 3.2-.9v-5.4l6.7 4.3v7.8l2.2 1.1 3.4-1.1-.3-14zM55.1 21.2l.3 21.7-1.7.2-.4-21.8 1.8-.1zm-8.1.3l.6 22.4-2.2.3-.7-22.6 2.3-.1zm-4.1.2l.3 22.8-2.4.3-.4-23 2.5-.1zm-3.2 41.4V51.7l4.9 2.4-.1 11.9-4.8-2.9zm10.4-19.5l-.8-22.1 2.1-.1.6 22-1.9.2zm11.7 15v-4.7l7-.9.1 9.6-7.1-4z" fill="#4C4D50"/></g><g id="fence" transform="translate(100,0)"><path fill="#4C4D50" d="M11 38h78v4H11zM11 61h78v4H11zM16 74V29s1.8-4 3.3-4h5.5c2.2 0 3.3 3.8 3.3 4v45H16z"/><circle cx="19" cy="40" r="1" fill="#fff"/><circle cx="25" cy="40" r="1" fill="#fff"/><circle cx="19" cy="63" r="1" fill="#fff"/><circle cx="25" cy="63" r="1" fill="#fff"/><path d="M30 74V29s1.8-4 3.3-4h5.5c2.2 0 3.3 3.8 3.3 4v45H30z" fill="#4C4D50"/><circle cx="33" cy="40" r="1" fill="#fff"/><circle cx="39" cy="40" r="1" fill="#fff"/><circle cx="33" cy="63" r="1" fill="#fff"/><circle cx="39" cy="63" r="1" fill="#fff"/><path d="M44 74V29s1.8-4 3.3-4h5.5c2.2 0 3.3 3.8 3.3 4v45H44z" fill="#4C4D50"/><circle cx="47" cy="40" r="1" fill="#fff"/><circle cx="53" cy="40" r="1" fill="#fff"/><circle cx="47" cy="63" r="1" fill="#fff"/><circle cx="53" cy="63" r="1" fill="#fff"/><path d="M58 74V29s1.8-4 3.3-4h5.5c2.2 0 3.3 3.8 3.3 4v45H58z" fill="#4C4D50"/><circle cx="61" cy="40" r="1" fill="#fff"/><circle cx="67" cy="40" r="1" fill="#fff"/><circle cx="61" cy="63" r="1" fill="#fff"/><circle cx="67" cy="63" r="1" fill="#fff"/><path d="M72 74V29s1.8-4 3.3-4h5.5c2.2 0 3.3 3.8 3.3 4v45H72z" fill="#4C4D50"/><circle cx="75" cy="40" r="1" fill="#fff"/><circle cx="81" cy="40" r="1" fill="#fff"/><circle cx="75" cy="63" r="1" fill="#fff"/><circle cx="81" cy="63" r="1" fill="#fff"/></g><g id="floor" transform="translate(200,0)"><path fill="#4C4D50" d="M19.6 67.8H49V31.6H38.6zM50.7 31.6v36.2h27.7L61.3 31.6zM61.8 31.6h9.5s19.6 18.7 21 20.1v16.2H79.9L61.8 31.6zm11.2 0h10.4s7.8 5.8 8.9 6.7V50L73 31.6zm12.3 0h7v5.5l-7-5.5zm-60.5 0l-20 21V40.5c1.3-1.2 10.1-8.8 10.1-8.8h9.9v-.1z"/><path fill="#4C4D50"/><path d="M12.7 31.6l-7.9 6.6v-6.6c1.1 0 NaN NaN NaN NaNhNaNz" fill="#4C4D50"/><path fill="#4C4D50"/><path d="M26.6 31.6H37L18 67.9H4.8v-14c1.3-1.4 21.8-22.3 NaN NaNz" fill="#4C4D50"/><path fill="#797A7C" d="M50.7 68.7h27.7V73H50.7zM19.6 68.7H49V73H19.6zM79.9 68.7V73h12.4v-4.3H79.9zm-62 0V73H4.8v-4.3c.8 0 13.1 0 NaN NaNz"/></g><g id="house" transform="translate(300,0)"><path fill="#4C4D50" d="M21.1 46.3h60.5v8.1H21.1zM21.1 55.6v7h18.6s-.7-3.5 2.3-3.5h18.7c2.7 0 2.3 3.5 2.3 3.5h18.6v-7H21.1zM21.1 63.7h18.6v7H21.1zM21.1 71.9h18.6v7H21.1zM63 71.9h18.6v7H63zM63 63.7h18.6v7H63zM44.3 45.1v-7H29.7l-7.5 7zM58.3 38.1h14.6l7.5 7H58.3zM30.4 37h13.9v-3.5h14V37h14l-7-7H37.2zM38.3 28.8h25.6l-7-7h-12zM10.6 47.3c0 1.3 1.1 2.4 2.4 2.4h.1c.6 0 1.2-.2 1.7-.7l32.3-31.2c.5-.4 1.1-.7 1.7-.7h5c.6 0 1.2.2 1.7.7L87.8 49c.5.4 1.1.7 1.7.7h.9c.9 0 1.6-.7 1.6-1.6 0-.4-.2-.9-.5-1.2L56.7 13.2c-.5-.4-1.1-.7-1.7-.7h-7.4c-.6 0-1.2.2-1.7.7L11.4 45.5c-.5.5-.8 1.1-.8 1.8zM22.2 36.2v-22h13v10.5z"/></g><g id="jigsaw" transform="translate(400,0)"><path fill="#4C4D50" d="M15.5 69h69v4h-69zM15.5 64v4h69V56s-3-5-5-5h-49c-2 7-15 13-15 13zM55.5 50h8l11-13-3-5zM64.5 50h2l14-15-1-1zM67.5 50h11V39zM23.5 57l7-8c-2-2 2-18 2-18h-9c-2 2-7 19 0 26zM52.5 42s-5.9 1.3-9 2c0 0-7-7-3-13s10-6 14-6c8 0 8 9 8 10 0 6-6 10-6 10S62 39 61 35s-2.5-9-6.5-8c-5 1-7 13-2 15z"/></g><g id="sauna" transform="translate(500,0)"><path d="M58.7 51.7s30-1.5 29.2-6.9-21.5-6.9-21.5-6.9zM24.4 37.3c1.4-2.4 8-2.3 8-2.3s-4.7-24.2-8-24.2-8.1.6-8.5 5.3 8.3 22.1 8.5 21.2zM45 85zM33.1 59.7v-.2.2zM60.8 59.9l-.2 5.7.4-5.6h6l-1.4 14.4h.1l1.7-14.9c-2.1.2-4.3.3-6.6.4zM75.6 59l.1-.3-2.9.3h2.8zM29 76.4zM50 85M52 85" fill="#4c4d50"/><path d="M88 48l-.6.3-8.4 3.2v.1l-.6 3.5c2.3-.5 4.6-1 6.9-1.6a2.92 2.92 0 0 1 .9-.2c.2-.1.4-.1.6-.2 0 0 1.4-5.5 1.2-5.1zM85.5 57.1a71.56 71.56 0 0 1-7.6 1.3h-.1l-2.4 14.7a.6.6 0 0 0 .4-.1c1.9-.3 3.8-.6 5.7-1h.1s1.4-4.8 2.4-8.9c.6-2.1 1.2-4.2 1.7-6.1a.35.35 0 0 1-.2.1zM80.9 74.6a.2.2 0 0 0-.2.1A52.6 52.6 0 0 1 75 76l-.9 5.6L74 83l1.1-.2c1.3-.3 3.2-.7 3.9-1.4s1.2-3.5 1.5-5.3c.1-.5.4-1.5.4-1.5zM72.6 76.4c-1.6.3-3.5.6-5.4.8l-.8 7.2v.4c1.8-.2 3.5-.4 5.1-.7l1.1-7.7zM72.8 59l-3.6.3-.5 4.1-1.2 10.7a1.27 1.27 0 0 0 .6-.1c1.7-.2 3.3-.4 5.1-.7l2.5-14.4h-2.9v.1zM69.9 53.1v.2l-.4 3.1c2.1-.2 4.2-.6 6.4-.9a.37.37 0 0 0 .3-.1l.5-3.2V52zM62.6 54H61v.1l-.1 3.1c1-.1 2.1-.1 3.1-.2l3.6-.3.3-2.7.1-.4c-1.8.1-3.6.3-5.4.4zM61 60l-.4 5.6-.3 9.2c1.7-.1 3.4-.3 5.2-.5l1.4-14.4H61v.1zM65.3 77.4H65c-1.5.2-3.1.3-4.7.4l-.2 6.9v.3h4.5v-.6l.1-.7zM56 54l-.1.2-.5 1-1.1 2.2h.2c1.5 0 3-.1 4.5-.1V54h-3zM59 60c-2 .1-4 .2-6 .2l-.1.2-1.1 2.2.1 12.6c2.1 0 4.3-.1 6.5-.3h.5L59 60zM45.7 75.3H50v-8.9zM59 77.9c-2.2.1-4.6.3-7 .3h-.1l.1 6.7v.1h7v-7.1zM50 85v-6.8c-1.6 0-3.3 0-5-.1v6.8c1.6.1 3.3.1 5 .1zM47.3 54l-4.3-.3v3.5c1.9.1 3.8.2 5.7.2l1.6-3.3.1-.1h-3.1zM43 60.1v9l4.3-8.8.1-.2a32.3 32.3 0 0 1-4.4 0zM34.6 52.9v.3l.2 3.4 7.2.6v-3.5zM33.7 73.7l-.6-14v-.2c-2.3-.2-4.6-.5-6.8-.9h-.2l2.4 15c1.5.3 3.3.6 5.2.8v-.7zM42 71V60.1c-2.3-.1-4.7-.2-7-.4h-.1l.7 15c1.4.2 2.9.3 4.5.4zM33.9 79.8l-.1-2.6c-1.6-.2-3.2-.5-4.8-.8v.2l.4 2.5v.1l4.5.6zM38.4 77.7l-2.4-.3h-.2l.1 2.7 1.6.2 1.3-2.6a.53.53 0 0 1-.4 0z" fill="#4c4d50"/><path d="M85.8 57l.8-3.1c-.3.9-.5 2-.8 3.1zM59 60zM86.2 53.3a2.92 2.92 0 0 1-.9.2l.9-.2zM72.8 59h-3.5v.3zM81.6 72v.2h.1l-.1-.2zM59 77.9" fill="#fff"/><path d="M58.7 75zM76.8 52.1zM76.8 52.1zM66.3 84.3zM69.9 53.3zM69.2 59.3H69l-.3 4.1zM64.5 84.4l.1-.7zM69.2 59H69v.4h.2V59zM67.2 76.7h-.4v.5h.4v-.5zM60 84.7zM60.6 65.6l-.6 9.3h.3zM60 74.9v.1h.3v-.1H60zM28.3 80.9c.2 0 .3.1.5.1h.1zM28 75.6l-1-.2.1.6c.3.1.6.1.9.2v-.6zM41.1 84.9z" fill="#fff"/><path fill="#4c4d50" d="M30.81 68.4v-.1l-1.4 3-1.5 2.9h3v-.1l-.1-5.7z"/><path fill="#fff" d="M34.21 49.6l.1-.2-.1.2zM14.51 68l-3.2-.5 3.2.6V68zM14.91 68.1l-.4-.1v.1l.4.1v-.1zM50 85zM51.8 60.2zM44.9 75.3l.1-.3z"/><path d="M21.9 79.7l.1.3zM28 80.9v.1h.8c-.2 0-.3-.1-.5-.1H28zM22.4 50.9c-1.3-.3-8.2-2.7-8.2-2.7l-.2-.1-.1-.1 1 4.9a73.06 73.06 0 0 0 8.4 1.9 37.5 37.5 0 0 1-.9-3.9zM51.7 51.5c.5-.7-1.4-1.3-1.1-2.6S58.9 37 57 37h-8.2s-35.7 2.9-35.7 7.4 26.2 8.1 38.6 7.1zM32.8 53v-.3c-2.8-.4-5.5-.8-7.8-1.3l.1.6.5 3.3c2.2.3 4.6.7 7.3 1z" fill="#4c4d50"/><path d="M21.9 79.7l.1.3z" fill="none"/><path d="M27.1 76c-2-.5-4-1-6-1.6-.2-.1-.3-.1-.5-.2l1 3.7 2.8.4 3.2.5zM26.5 72.7l-2.6-14.2-.1-.3-2.7-.6c-1.7-.4-3.4-.8-5-1.3H16l2.5 9.7 1.3 5a27.59 27.59 0 0 0 6.8 2.2zM67.8 24c-1.1 1.8-14 23.5-14.6 24.5s.9.1.5.9c-.1.2-.9 1.8-2.1 4.3a1.06 1.06 0 0 0-.2.5c-.5 1-1 2.1-1.6 3.3-.4.9-.9 1.8-1.4 2.8-2.4 4.9-5.2 10.5-7.5 14.9-.5 1-1 1.9-1.4 2.7a25.94 25.94 0 0 1-2.5 4.2.75.75 0 0 1-.5.1L28 81c-2-.4-4.1-.8-6-1.2 0 0-8.6-1.7-8.8-1.5-.7.4 1.8 12.7 13.3 12.7 8.9 0 11.7-4.2 12.6-6.1a2.32 2.32 0 0 0 .3-.9l3.1-5.9 1.5-2.8 7.8-15 1.5-2.8 1.7-3.2 1.8-3.5s.9-1.2 1.5-1 12.5-22.2 13.2-23.5c.5-1.4-2.6-4-3.7-2.3z" fill="#4c4d50"/></g><g id="toy" transform="translate(600,0)"><path d="M76.3 31.9c2.7 1.2 8.1 5.9 8.1 8.2s-8.6 6.2-10.2 6.2-5.2-4.1-5.2-5.8c.1-1.7 4.6-9.8 7.3-8.6zM84.8 63.2s3.9-1 1.7 3.3S71.9 79 58.8 79.9c-10 1.2-14.3 0-14.3 0s-7.3-.8-14.1-3.5C18.1 71 19.3 64.6 19.3 64.6s.3-2.9 3.2-2.3 5.7 8.2 12.1 9.9c6.5 1.7 20.6 3.8 27.1 2.3 6.6-1.6 14.2-1.1 23.1-11.3zM20.9 29.2c-1.6.7-3.2 3.3-3.2 5.1 0 1.9 2.4 4.6 3.9 5 1.5.4 5.8-.9 6.7-.9s-5.8-9.8-7.4-9.2zM28.4 22.5s1 3 2.4 2.7c1.3-.3 4.2-1.1 6.3-.9 2.1.3 3.4 14.1 2.6 16.6.6 2.4 5.7 4.6 6.6 4.7s3.9.5 5.2 0c1.3-.5.9-1.8.9-3s-5.5-1.3-6.5-4.1c-1.3-3.6-1.5-9.8-2-13-.1-3-7.1-6.7-7.1-6.7s.1-3.2-1.5-3.2S34 19 34 19s-4.4-.2-5.6 3.5zM44.6 46.7c-2 .8-1.1 2.3 0 3.4 1.1 1.2 3.6 6.7 5.4 6.7s6 .4 8.1 0 3.7-6.4 3.7-6.4c.5-3.1 1.1-5.5 1.1-7.5s-8 0-8 0-.9 3.7-2.6 4.4c-1.6.8-6.3-1.1-7.7-.6zM57.6 58.8c.5-.4 10.3-7.6 7.8-15 3.7-.9 7.8 5.8 7.8 5.8s-1 1 0 5.1 7.3 14 7.3 14L71.2 73c.1.1-4.6-13.4-13.6-14.2zM26.3 66.6c7.8-5.2 8.1-17 8.1-17s.9-9.8-1.1-11.9c-4.2.8-10.3-8.4-10.3-10 0-1.6 3.3-3.3 4.6-2.7 1.3.6-.6 1.4 1.1 2.3 1.7.9 5.4-2.1 7.6-.5 2.2 1.6 1.6 12.6 1.6 12.6l1.4 5.7 1.9 4.5s4.5 8.2 7.7 8.2c-9.8 2.1-14.3 14.4-14.3 14.4s-16.1-.3-8.3-5.6z" fill="#4C4D50"/></g></svg>