<?xml version="1.0" encoding="UTF-8"?><!DOCTYPE svg PUBLIC "-//W3C//DTD SVG 1.1 Tiny//EN" "http://www.w3.org/Graphics/SVG/1.1/DTD/svg11-tiny.dtd"><svg baseProfile="tiny" xmlns="http://www.w3.org/2000/svg" width="700" height="100" preserveAspectRatio="xMaxYMax meet" viewBox="0 0 700 100"><g id="chair" transform="translate(0,0)"><path fill="#4C4D50" d="M33 70.9l2.2 2.3 4.2-1.3v-3.7l4.8 3.8v7.9l2.2 1.1 4.5-1.1V54.1L44.5 53l-.1 12.9-4.7-2.8V53L33 50.8zM56.2 68.7l4.5 1.2 2.3-.1v-5.6l6.7 4.5v7.8l2.2 1.1 3.4-1.1-.3-14-5.3.6-7.9-4.5v-5.5l-5.6 1zM33 50.8V16.1l1.1-1.1c7.5-.4 22.3-1.2 23.5-1.1 1.9.1 2.2 1.4 2.2 2.2 0 .9 1.4 26 1.4 26l-5.8 1.6-.3-22.2-1.8.1.4 21.5-1.7.6-.6-21.9-2.1.1.8 22.1-2.5-.1-.6-21.8-2.3.4.7 22.8h-2.2l-.3-22.7-2.5.2.4 22.4s-2.5-.2-1.9-.2.8 9.5.8 9.5L33 50.8zM37.5 45.2l23.7-3.1 13 5 .8 16-6.1 1.3-.1-11.4L51 55.2l-6.4-1.1-5.3-2.6z"/></g><g id="fence" transform="translate(100,0)"><path fill="#4C4D50" d="M11 38h78v4H11zM11 61h78v4H11zM16 74V29s1.8-4 3.3-4h5.5c2.2 0 3.3 3.8 3.3 4v45H16z"/><circle cx="19" cy="40" r="1" fill="#fff"/><circle cx="25" cy="40" r="1" fill="#fff"/><circle cx="19" cy="63" r="1" fill="#fff"/><circle cx="25" cy="63" r="1" fill="#fff"/><path d="M30 74V29s1.8-4 3.3-4h5.5c2.2 0 3.3 3.8 3.3 4v45H30z" fill="#4C4D50"/><circle cx="33" cy="40" r="1" fill="#fff"/><circle cx="39" cy="40" r="1" fill="#fff"/><circle cx="33" cy="63" r="1" fill="#fff"/><circle cx="39" cy="63" r="1" fill="#fff"/><path d="M44 74V29s1.8-4 3.3-4h5.5c2.2 0 3.3 3.8 3.3 4v45H44z" fill="#4C4D50"/><circle cx="47" cy="40" r="1" fill="#fff"/><circle cx="53" cy="40" r="1" fill="#fff"/><circle cx="47" cy="63" r="1" fill="#fff"/><circle cx="53" cy="63" r="1" fill="#fff"/><path d="M58 74V29s1.8-4 3.3-4h5.5c2.2 0 3.3 3.8 3.3 4v45H58z" fill="#4C4D50"/><circle cx="61" cy="40" r="1" fill="#fff"/><circle cx="67" cy="40" r="1" fill="#fff"/><circle cx="61" cy="63" r="1" fill="#fff"/><circle cx="67" cy="63" r="1" fill="#fff"/><path d="M72 74V29s1.8-4 3.3-4h5.5c2.2 0 3.3 3.8 3.3 4v45H72z" fill="#4C4D50"/><circle cx="75" cy="40" r="1" fill="#fff"/><circle cx="81" cy="40" r="1" fill="#fff"/><circle cx="75" cy="63" r="1" fill="#fff"/><circle cx="81" cy="63" r="1" fill="#fff"/></g><g id="floor" transform="translate(200,0)"><path fill="#4C4D50" d="M18.6 67.5H48V31.3H37.6zM49.7 31.3v36.2h27.7L60.3 31.3zM61.8 31.3h9.5S90.6 49.8 92 51.2c1.4 1.4-3.3 16.4-4.3 16.4h-7.8L61.8 31.3zM73 31.3h10.4s5.8 4.3 6.9 5.2 1.7 13 1.7 13L73 31.3zM85.3 31.3h3.3c.6 0 .9 3.5.9 3.5l-4.2-3.5zM25.6 31.3H36L17 67.6H8.4S3.5 54.3 4.8 52.9c1.4-1.4 20.8-21.6 20.8-21.6zM23.8 31.3l-19 19.9c-1-.5-1.6-10.6-.3-11.7 1.3-1.2 9.4-8.1 9.4-8.1h9.9zM11.7 31.3l-6 4.3s.5-4.3 1.7-4.3h4.3z"/><path fill="#797A7C" d="M49.7 68.4h28.5v4.3H49.7zM18.6 68.4H48v4.3H18.6zM79.9 68.4v4.3h5.2c.8 0 2.6-4.3 2.6-4.3h-7.8zM16.9 68.4v4.3h-6s-3.1-3-2.6-4.3h8.6z"/></g><g id="house" transform="translate(300,0)"><path fill="#4C4D50" d="M21.1 46.3h60.5v8.1H21.1zM21.1 55.6v7h18.6s-.7-3.5 2.3-3.5h18.7c2.7 0 2.3 3.5 2.3 3.5h18.6v-7H21.1zM21.1 63.7h18.6v7H21.1zM21.1 71.9h18.6v7H21.1zM63 71.9h18.6v7H63zM63 63.7h18.6v7H63zM44.3 45.1v-7H29.7l-7.5 7zM58.3 38.1h14.6l7.5 7H58.3zM30.4 37h13.9v-3.5h14V37h14l-7-7H37.2zM38.3 28.8h25.6l-7-7h-12zM10.6 47.3c0 1.3 1.1 2.4 2.4 2.4h.1c.6 0 1.2-.2 1.7-.7l32.3-31.2c.5-.4 1.1-.7 1.7-.7h5c.6 0 1.2.2 1.7.7L87.8 49c.5.4 1.1.7 1.7.7h.9c.9 0 1.6-.7 1.6-1.6 0-.4-.2-.9-.5-1.2L56.7 13.2c-.5-.4-1.1-.7-1.7-.7h-7.4c-.6 0-1.2.2-1.7.7L11.4 45.5c-.5.5-.8 1.1-.8 1.8zM22.2 36.2v-22h13v10.5z"/></g><g id="jigsaw" transform="translate(400,0)"><path fill="#4C4D50" d="M15.5 69h69v4h-69zM15.5 64v4h69V56s-3-5-5-5h-49c-2 7-15 13-15 13zM55.5 50h8l11-13-3-5zM64.5 50h2l14-15-1-1zM67.5 50h11V39zM23.5 57l7-8c-2-2 2-18 2-18h-9c-2 2-7 19 0 26zM52.5 42s-5.9 1.3-9 2c0 0-7-7-3-13s10-6 14-6c8 0 8 9 8 10 0 6-6 10-6 10S62 39 61 35s-2.5-9-6.5-8c-5 1-7 13-2 15z"/></g><g id="sauna" transform="translate(500,0)"><style type="text/css">.st0{fill:#4C4D50;} .st1{fill:#FFFFFF;}</style><g id="Layer_3"><path class="st0" d="M81 53.5l9-3.4-1.8 5.2-7.2 1.6zM80 60.1l7.6-1.4S84.2 73.4 83.8 74c-.4.6-6 1.8-6 1.8L80 60.1zM76.7 77.4l6-.8s-.7 5.8-1.7 6.8-5 1.6-5 1.6l.7-7.6zM68.8 78.7l5.8-.6-1.2 6.9-5.1.9zM70 77l5.9-.8L77.8 61H71zM71.9 55.1l-.5 3.6 6.4-.8 1-3.8zM63 56h7l-.2 3H63zM63 62h6l-1.5 15H62zM62 79h5l-.5 8H62zM15.1 46.4c0-4.5 35.7-7.4 35.7-7.4H59s-6.1 10.6-6.4 11.9c-.3 1.3 1.6 1.9 1.1 2.6-12.4 1-38.6-2.6-38.6-7.1zM60.7 53.7l7.7-13.8s20.7 1.5 21.5 6.9c.8 5.4-29.2 6.9-29.2 6.9zM26.4 39.3c-.2.9-8.9-16.5-8.5-21.2s5.2-5.3 8.5-5.3 8 24.2 8 24.2-6.6-.1-8 2.3zM56.3 60l1.6-4H61v4zM55 62h6l-.3 15H54V66.2zM52 69v8h-4zM54 79h7l-.3 8H54zM47 79h5v8h-5zM46 81v6h-3zM45 56v4h6l1.7-4zM45 62v8l4.5-8zM44 55.9l-8-.8V59l8 .2zM27 54v4l8 1v-4zM28.2 60l6.8 1 2.2 14.8-6.2-.6zM37 61l7.2.2-.2 11.7-1.6 3.1H38zM15.9 50.1l9.4 3.6.8 4.3-9.2-2.9zM17.9 58l8.2 2.6 3.2 14.3-7.5-1.9zM23 76l7 1.6V81l-6-1.1zM31 78h6l.2 4-6.2-1zM38 78h3l-1.5 4H38z"/></g><g id="Layer_2"><path class="st0" d="M16 50c1.9 3.2 52.5 12.2 74 0 .8-1.4-9 33.4-9 33.4C69 89.5 25 86 25 86l-9-36z"/><path class="st1" d="M17 55c-.3-.8 0 3 0 3 24.3 8 66.5 2.5 70.8 1l1-3.9c-33 9.4-71.5.7-71.8-.1zM21.8 73l.8 3.2c24.3 8 56.1 1.9 60.3.4l.8-2.6c-36.9 7-58 1.1-61.9-1zM78.8 54l2.2-.6L75.9 85l-2.5.6zM70 55.5l1.9-.2-3.6 31-1.8.1zM61 56h2l-1 31h-1zM24.5 52.9l2.5.5L31.7 83H30zM34.8 54.6l1.8.3L38 84l-2-1zM44 55h1v18h-1zM57 56h1L43.1 86.9l-2.2.1zM54.5 55.7L40 84.3 24 82l-.4-2.1 15.9 2.5 13.1-26.8zM54 86.9l-.2-24.7-1.8 3.4V87zM46 86.9h1V77l-1.1 4z"/><path class="st0" d="M39 84c-1.3.8-23.2-4.2-23.9-3.8-.7.4 1.8 12.7 13.3 12.7s12.9-7 12.9-7l17.3-33.2s.9-1.2 1.5-1c.6.2 12.5-22.2 13.2-23.5.7-1.3-2.4-3.9-3.5-2.2-1.1 1.8-14 23.5-14.6 24.5-.6 1.1.9.1.5.9S40.3 83.2 39 84z"/></g></g><g id="toy" transform="translate(600,0)"><path d="M76.3 31.9c2.7 1.2 8.1 5.9 8.1 8.2s-8.6 6.2-10.2 6.2-5.2-4.1-5.2-5.8c.1-1.7 4.6-9.8 7.3-8.6zM84.8 63.2s3.9-1 1.7 3.3S71.9 79 58.8 79.9c-10 1.2-14.3 0-14.3 0s-7.3-.8-14.1-3.5C18.1 71 19.3 64.6 19.3 64.6s.3-2.9 3.2-2.3 5.7 8.2 12.1 9.9c6.5 1.7 20.6 3.8 27.1 2.3 6.6-1.6 14.2-1.1 23.1-11.3zM20.9 29.2c-1.6.7-3.2 3.3-3.2 5.1 0 1.9 2.4 4.6 3.9 5 1.5.4 5.8-.9 6.7-.9s-5.8-9.8-7.4-9.2zM28.4 22.5s1 3 2.4 2.7c1.3-.3 4.2-1.1 6.3-.9 2.1.3 3.4 14.1 2.6 16.6.6 2.4 5.7 4.6 6.6 4.7s3.9.5 5.2 0c1.3-.5.9-1.8.9-3s-5.5-1.3-6.5-4.1c-1.3-3.6-1.5-9.8-2-13-.1-3-7.1-6.7-7.1-6.7s.1-3.2-1.5-3.2S34 19 34 19s-4.4-.2-5.6 3.5zM44.6 46.7c-2 .8-1.1 2.3 0 3.4 1.1 1.2 3.6 6.7 5.4 6.7s6 .4 8.1 0 3.7-6.4 3.7-6.4c.5-3.1 1.1-5.5 1.1-7.5s-8 0-8 0-.9 3.7-2.6 4.4c-1.6.8-6.3-1.1-7.7-.6zM57.6 58.8c.5-.4 10.3-7.6 7.8-15 3.7-.9 7.8 5.8 7.8 5.8s-1 1 0 5.1 7.3 14 7.3 14L71.2 73c.1.1-4.6-13.4-13.6-14.2zM26.3 66.6c7.8-5.2 8.1-17 8.1-17s.9-9.8-1.1-11.9c-4.2.8-10.3-8.4-10.3-10 0-1.6 3.3-3.3 4.6-2.7 1.3.6-.6 1.4 1.1 2.3 1.7.9 5.4-2.1 7.6-.5 2.2 1.6 1.6 12.6 1.6 12.6l1.4 5.7 1.9 4.5s4.5 8.2 7.7 8.2c-9.8 2.1-14.3 14.4-14.3 14.4s-16.1-.3-8.3-5.6z" fill="#4C4D50"/></g></svg>