<?xml version="1.0" encoding="utf-8"?>
<!-- Generator: Adobe Illustrator 19.0.1, SVG Export Plug-In . SVG Version: 6.00 Build 0)  -->
<svg version="1.1" width="100" height="100" xmlns="http://www.w3.org/2000/svg" xmlns:xlink="http://www.w3.org/1999/xlink" x="0px" y="0px"
	 viewBox="0 0 100 100" style="enable-background:new 0 0 100 100;" xml:space="preserve">
<polygon style="fill:#4C4D50" points="33,70.9 35.2,73.2 39.4,71.9 39.4,68.2 44.2,72 44.2,79.9 46.4,81
    50.9,79.9 50.9,54.1 44.5,53 44.4,65.9 39.7,63.1 39.7,53 33,50.8 "/>
<polygon style="fill:#4C4D50" points="56.2,68.7 60.7,69.9 63,69.8 63,64.2 69.7,68.7 69.7,76.5 71.9,77.6 75.3,76.5
    75,62.5 69.7,63.1 61.8,58.6 61.8,53.1 56.2,54.1 "/>
<path style="fill:#4C4D50" d="M33,50.8c0,0,0-33.2,0-34.7s1.1-1.1,1.1-1.1c7.5-0.4,22.3-1.2,23.5-1.1c1.9,0.1,2.2,1.4,2.2,2.2
    c0,0.9,1.4,26,1.4,26l-5.8,1.6l-0.3-22.2l-1.8,0.1l0.4,21.5l-1.7,0.6l-0.6-21.9l-2.1,0.1l0.8,22.1l-2.5-0.1l-0.6-21.8l-2.3,0.4
    l0.7,22.8l-2.2,0l-0.3-22.7l-2.5,0.2l0.4,22.4c0,0-2.5-0.2-1.9-0.2s0.8,9.5,0.8,9.5L33,50.8z"/>
<polygon style="fill:#4C4D50" points="37.5,45.2 61.2,42.1 74.2,47.1 75,63.1 68.9,64.4 68.8,53 51,55.2
    44.6,54.1 39.3,51.5 "/>
</svg>




