<?xml version="1.0" encoding="utf-8"?>
<!-- Generator: Adobe Illustrator 19.0.1, SVG Export Plug-In . SVG Version: 6.00 Build 0)  -->
<svg version="1.1" xmlns="http://www.w3.org/2000/svg" xmlns:xlink="http://www.w3.org/1999/xlink" x="0px" y="0px"
	 viewBox="0 0 100 100" style="enable-background:new 0 0 100 100;" xml:space="preserve" width="100" height="100">
<path style="fill:#4C4D50" d="M75,62.5L75,62.5l-0.8-15.4l-13-5c0,0-1.4-25.1-1.4-26c0-0.8-0.3-2.1-2.2-2.2c-1.2-0.1-23.5,1.1-23.5,1.1
	s-1.1-0.1-1.1,1.1c0,1.5,0,34.7,0,34.7v20.1l2.2,2.3l4.2-1.3v-3.7l4.8,3.8v7.9l2.2,1.1l4.5-1.1v-24.7l0.1,0l5.2-0.6v14.1l3.6,2
	l3.2-0.9v-5.4l6.7,4.3v7.8l2.2,1.1l3.4-1.1L75,62.5z M55.1,21.2l0.3,21.7l-1.7,0.2l-0.4-21.8L55.1,21.2z M47,21.5
	l0.6,22.4l-2.2,0.3l-0.7-22.6L47,21.5z M42.9,21.7l0.3,22.8l-2.4,0.3l-0.4-23L42.9,21.7z M39.7,63.1l0-10.1
	c0-0.4,0-0.9,0-1.3l4.9,2.4l-0.1,11.9L39.7,63.1z M50.1,43.6l-0.8-22.1l2.1-0.1l0.6,22L50.1,43.6z M61.8,58.6v-4.7
	l7-0.9l0.1,9.6L61.8,58.6z"/>
</svg>
