<?xml version="1.0" encoding="utf-8"?>
<!-- Generator: Adobe Illustrator 19.0.1, SVG Export Plug-In . SVG Version: 6.00 Build 0)  -->
<svg version="1.1" xmlns="http://www.w3.org/2000/svg" xmlns:xlink="http://www.w3.org/1999/xlink" x="0px" y="0px"
	 viewBox="0 0 100 100" width="100" height="100" style="enable-background:new 0 0 100 100;" xml:space="preserve">
<rect x="11" y="38" style="fill:#4C4D50" width="78" height="4"/>
<rect x="11" y="61" style="fill:#4C4D50" width="78" height="4"/>
<path style="fill:#4C4D50" d="M16,74c0,0,0-44,0-45s1.8-4,3.3-4c1.1,0,4.4,0,5.5,0c2.2,0,3.3,3.8,3.3,4c0,5.3,0,45.3,0,45H16z"/>
<circle style="fill:#FFFFFF" cx="19" cy="40" r="1"/>
<circle style="fill:#FFFFFF" cx="25" cy="40" r="1"/>
<circle style="fill:#FFFFFF" cx="19" cy="63" r="1"/>
<circle style="fill:#FFFFFF" cx="25" cy="63" r="1"/>
<path style="fill:#4C4D50" d="M30,74c0,0,0-44,0-45s1.8-4,3.3-4c1.1,0,4.4,0,5.5,0c2.2,0,3.3,3.8,3.3,4c0,5.3,0,45.3,0,45H30z"/>
<circle style="fill:#FFFFFF" cx="33" cy="40" r="1"/>
<circle style="fill:#FFFFFF" cx="39" cy="40" r="1"/>
<circle style="fill:#FFFFFF" cx="33" cy="63" r="1"/>
<circle style="fill:#FFFFFF" cx="39" cy="63" r="1"/>
<path style="fill:#4C4D50" d="M44,74c0,0,0-44,0-45s1.8-4,3.3-4c1.1,0,4.4,0,5.5,0c2.2,0,3.3,3.8,3.3,4c0,5.3,0,45.3,0,45H44z"/>
<circle style="fill:#FFFFFF" cx="47" cy="40" r="1"/>
<circle style="fill:#FFFFFF" cx="53" cy="40" r="1"/>
<circle style="fill:#FFFFFF" cx="47" cy="63" r="1"/>
<circle style="fill:#FFFFFF" cx="53" cy="63" r="1"/>
<path style="fill:#4C4D50" d="M58,74c0,0,0-44,0-45s1.8-4,3.3-4c1.1,0,4.4,0,5.5,0c2.2,0,3.3,3.8,3.3,4c0,5.3,0,45.3,0,45H58z"/>
<circle style="fill:#FFFFFF" cx="61" cy="40" r="1"/>
<circle style="fill:#FFFFFF" cx="67" cy="40" r="1"/>
<circle style="fill:#FFFFFF" cx="61" cy="63" r="1"/>
<circle style="fill:#FFFFFF" cx="67" cy="63" r="1"/>
<path style="fill:#4C4D50" d="M72,74c0,0,0-44,0-45s1.8-4,3.3-4c1.1,0,4.4,0,5.5,0c2.2,0,3.3,3.8,3.3,4c0,5.3,0,45.3,0,45H72z"/>
<circle style="fill:#FFFFFF" cx="75" cy="40" r="1"/>
<circle style="fill:#FFFFFF" cx="81" cy="40" r="1"/>
<circle style="fill:#FFFFFF" cx="75" cy="63" r="1"/>
<circle style="fill:#FFFFFF" cx="81" cy="63" r="1"/>
</svg>
