<?xml version="1.0" encoding="utf-8"?>
<!-- Generator: Adobe Illustrator 19.0.1, SVG Export Plug-In . SVG Version: 6.00 Build 0)  -->
<svg version="1.1" xmlns="http://www.w3.org/2000/svg" xmlns:xlink="http://www.w3.org/1999/xlink" x="0px" y="0px"
	 viewBox="0 0 100 100" width="100" height="100" style="enable-background:new 0 0 100 100;" xml:space="preserve">
<polygon style="fill:#4C4D50" points="18.6,67.5 48,67.5 48,31.3 37.6,31.3 "/>
<polygon style="fill:#4C4D50" points="49.7,31.3 49.7,67.5 77.4,67.5 60.3,31.3 "/>
<path style="fill:#4C4D50" d="M61.8,31.3h9.5c0,0,19.3,18.5,20.7,19.9c1.4,1.4-3.3,16.4-4.3,16.4s-7.8,0-7.8,0L61.8,31.3z"/>
<path style="fill:#4C4D50" d="M73,31.3h10.4c0,0,5.8,4.3,6.9,5.2s1.7,13,1.7,13L73,31.3z"/>
<path style="fill:#4C4D50" d="M85.3,31.3c0,0,2.7,0,3.3,0c0.6,0,0.9,3.5,0.9,3.5L85.3,31.3z"/>
<path style="fill:#4C4D50" d="M25.6,31.3h10.4l-19,36.3c0,0-7.3,0-8.6,0S3.5,54.3,4.8,52.9C6.2,51.5,25.6,31.3,25.6,31.3z"/>
<path style="fill:#4C4D50" d="M23.8,31.3l-19,19.9c-1-0.5-1.6-10.6-0.3-11.7c1.3-1.2,9.4-8.1,9.4-8.1H23.8z"/>
<path style="fill:#4C4D50" d="M11.7,31.3l-6,4.3c0,0,0.5-4.3,1.7-4.3S11.7,31.3,11.7,31.3z"/>
<rect x="49.7" y="68.4" style="fill:#797A7C" width="28.5" height="4.3"/>
<rect x="18.6" y="68.4" style="fill:#797A7C" width="29.4" height="4.3"/>
<path style="fill:#797A7C" d="M79.9,68.4v4.3c0,0,4.4,0,5.2,0c0.8,0,2.6-4.3,2.6-4.3H79.9z"/>
<path style="fill:#797A7C" d="M16.9,68.4v4.3h-6c0,0-3.1-3-2.6-4.3C9.2,68.4,16.9,68.4,16.9,68.4z"/>
</svg>
