<?xml version="1.0" encoding="utf-8"?>
<!-- Generator: Adobe Illustrator 19.0.1, SVG Export Plug-In . SVG Version: 6.00 Build 0)  -->
<svg version="1.1" xmlns="http://www.w3.org/2000/svg" xmlns:xlink="http://www.w3.org/1999/xlink" x="0px" y="0px"
	 viewBox="0 0 100 100" style="enable-background:new 0 0 100 100;" xml:space="preserve" width="100" height="100">
<g>
	<polygon style="fill:#4C4D50" points="19.6,67.8 49,67.8 49,31.6 38.6,31.6 	"/>
	<polygon style="fill:#4C4D50" points="50.7,31.6 50.7,67.8 78.4,67.8 61.3,31.6 	"/>
	<path style="fill:#4C4D50" d="M61.8,31.6h9.5c0,0,19.6,18.7,21,20.1v16.2c-1,0-12.4,0-12.4,0 L61.8,31.6z M73,31.6h10.4c0,0,7.8,5.8,8.9,6.7V50L73,31.6z M85.3,31.6c0,0,6.4,0,7,0v5.5L85.3,31.6z M24.8,31.6l-20,21v-12.1c1.3-1.2,10.1-8.8,10.1-8.8h9.9V31.6z"/>
	<path style="fill:#4C4D50" d=""/>
	<path style="fill:#4C4D50" d="M12.7,31.6l-7.9,6.6v-6.6 C5.9,31.6H12.7z"/>
	<path style="fill:#4C4D50" d=""/>
	<path style="fill:#4C4D50" d="M26.6,31.6h10.4l-19,36.3c0,0-11.9,0-13.2,0v-14C 6.1,52.5 26.6,31.6z"/>
	<rect x="50.7" y="68.7" style="fill:#797A7C" width="27.7" height="4.3"/>
	<rect x="19.6" y="68.7" style="fill:#797A7C" width="29.4" height="4.3"/>
	<path style="fill:#797A7C" d="M79.9,68.7v4.3c0,0,11.6,0,12.4,0v-4.3H79.9z M17.9,68.7v4.3h-13.1v-4.3C 5.6,68.7 17.9,68.7z"/>
</g>
</svg>
