<?xml version="1.0" encoding="utf-8"?>
<!-- Generator: Adobe Illustrator 19.0.1, SVG Export Plug-In . SVG Version: 6.00 Build 0)  -->
<svg version="1.1" xmlns="http://www.w3.org/2000/svg" xmlns:xlink="http://www.w3.org/1999/xlink" x="0px" y="0px"
	 viewBox="0 0 100 100" width="100" height="100" style="enable-background:new 0 0 100 100;" xml:space="preserve">
<rect x="21.1" y="46.3" style="fill:#4C4D50" width="60.5" height="8.1"/>
<path style="fill:#4C4D50" d="M21.1,55.6v7h18.6c0,0-0.7-3.5,2.3-3.5s16,0,18.7,0c2.7,0,2.3,3.5,2.3,3.5h18.6v-7H21.1z"/>
<rect x="21.1" y="63.7" style="fill:#4C4D50" width="18.6" height="7"/>
<rect x="21.1" y="71.9" style="fill:#4C4D50" width="18.6" height="7"/>
<rect x="63" y="71.9" style="fill:#4C4D50" width="18.6" height="7"/>
<rect x="63" y="63.7" style="fill:#4C4D50" width="18.6" height="7"/>
<polygon style="fill:#4C4D50" points="44.3,45.1 44.3,38.1 29.7,38.1 22.2,45.1 "/>
<polygon style="fill:#4C4D50" points="58.3,38.1 72.9,38.1 80.4,45.1 58.3,45.1 "/>
<polygon style="fill:#4C4D50" points="30.4,37 44.3,37 44.3,33.5 58.3,33.5 58.3,37 72.3,37 65.3,30 37.2,30 "/>
<polygon style="fill:#4C4D50" points="38.3,28.8 63.9,28.8 56.9,21.8 44.9,21.8 "/>
<path style="fill:#4C4D50" d="M10.6,47.3L10.6,47.3c0,1.3,1.1,2.4,2.4,2.4h0.1c0.6,0,1.2-0.2,1.7-0.7l32.3-31.2c0.5-0.4,1.1-0.7,1.7-0.7h5
	c0.6,0,1.2,0.2,1.7,0.7l32.3,31.2c0.5,0.4,1.1,0.7,1.7,0.7h0.9c0.9,0,1.6-0.7,1.6-1.6v0c0-0.4-0.2-0.9-0.5-1.2L56.7,13.2
	c-0.5-0.4-1.1-0.7-1.7-0.7h-7.4c-0.6,0-1.2,0.2-1.7,0.7L11.4,45.5C10.9,46,10.6,46.6,10.6,47.3z"/>
<polygon style="fill:#4C4D50" points="22.2,36.2 22.2,14.2 35.2,14.2 35.2,24.7 "/>
</svg>
