<?xml version="1.0" encoding="utf-8"?>
<!-- Generator: Adobe Illustrator 19.0.1, SVG Export Plug-In . SVG Version: 6.00 Build 0)  -->
<svg version="1.1" xmlns="http://www.w3.org/2000/svg" xmlns:xlink="http://www.w3.org/1999/xlink" x="0px" y="0px"
	 viewBox="0 0 100 100" width="100" height="100" style="enable-background:new 0 0 100 100;" xml:space="preserve">
<rect x="15.5" y="69" style="fill:#4C4D50" width="69" height="4"/>
<path style="fill:#4C4D50" d="M15.5,64v4h69c0,0,0-10,0-12s-3-5-5-5s-46,0-49,0C28.5,58,15.5,64,15.5,64z"/>
<polygon style="fill:#4C4D50" points="55.5,50 63.5,50 74.5,37 71.5,32 "/>
<polygon style="fill:#4C4D50" points="64.5,50 66.5,50 80.5,35 79.5,34 "/>
<polygon style="fill:#4C4D50" points="67.5,50 78.5,50 78.5,39 "/>
<path style="fill:#4C4D50" d="M23.5,57l7-8c-2-2,2-18,2-18s-7,0-9,0C21.5,33,16.5,50,23.5,57z"/>
<path style="fill:#4C4D50" d="M52.5,42c0,0-5.9,1.3-9,2c0,0-7-7-3-13s10-6,14-6c8,0,8,9,8,10c0,6-6,10-6,10S62,39,61,35s-2.5-9-6.5-8
	C49.5,28,47.5,40,52.5,42z"/>
</svg>
