<?xml version="1.0" encoding="utf-8"?>
<!-- Generator: Adobe Illustrator 19.0.1, SVG Export Plug-In . SVG Version: 6.00 Build 0)  -->
<svg version="1.1" xmlns="http://www.w3.org/2000/svg" xmlns:xlink="http://www.w3.org/1999/xlink" x="0px" y="0px"
	 viewBox="0 0 100 100" style="enable-background:new 0 0 100 100;" width="100" height="100" xml:space="preserve">
<style type="text/css">
	.st0{fill:#4C4D50;}
	.st1{fill:#FFFFFF;}
</style>
<g id="Layer_3">
	<polygon class="st0" points="81,53.5 90,50.1 88.2,55.3 81,56.9 	"/>
	<path class="st0" d="M80,60.1l7.6-1.4c0,0-3.4,14.7-3.8,15.3c-0.4,0.6-6,1.8-6,1.8L80,60.1z"/>
	<path class="st0" d="M76.7,77.4l6-0.8c0,0-0.7,5.8-1.7,6.8S76,85,76,85L76.7,77.4z"/>
	<polygon class="st0" points="68.8,78.7 74.6,78.1 73.4,85 68.3,85.9 	"/>
	<polygon class="st0" points="70,77 75.9,76.2 77.8,61 71,61 	"/>
	<polygon class="st0" points="71.9,55.1 71.4,58.7 77.8,57.9 78.8,54.1 	"/>
	<polygon class="st0" points="63,56 70,56 69.8,59 63,59 	"/>
	<polygon class="st0" points="63,62 69,62 67.5,77 62,77 	"/>
	<polygon class="st0" points="62,79 67,79 66.5,87 62,87 	"/>
	<path class="st0" d="M15.1,46.4c0-4.5,35.7-7.4,35.7-7.4s6.3,0,8.2,0s-6.1,10.6-6.4,11.9c-0.3,1.3,1.6,1.9,1.1,2.6
		C41.3,54.5,15.1,50.9,15.1,46.4z"/>
	<path class="st0" d="M60.7,53.7l7.7-13.8c0,0,20.7,1.5,21.5,6.9C90.7,52.2,60.7,53.7,60.7,53.7z"/>
	<path class="st0" d="M26.4,39.3c-0.2,0.9-8.9-16.5-8.5-21.2s5.2-5.3,8.5-5.3s8,24.2,8,24.2S27.8,36.9,26.4,39.3z"/>
	<polygon class="st0" points="56.3,60 57.9,56 61,56 61,60 	"/>
	<polygon class="st0" points="55,62 61,62 60.7,77 54,77 54,66.2 	"/>
	<polygon class="st0" points="52,69 52,77 48,77 	"/>
	<polygon class="st0" points="54,79 61,79 60.7,87 54,87 	"/>
	<rect x="47" y="79" class="st0" width="5" height="8"/>
	<polygon class="st0" points="46,81 46,87 43,87 	"/>
	<polygon class="st0" points="45,56 45,60 51,60 52.7,56 	"/>
	<polygon class="st0" points="45,62 45,70 49.5,62 	"/>
	<polygon class="st0" points="44,55.9 36,55.1 36,59 44,59.2 	"/>
	<polygon class="st0" points="27,54 27,58 35,59 35,55 	"/>
	<polygon class="st0" points="28.2,60 35,61 37.2,75.8 31,75.2 	"/>
	<polygon class="st0" points="37,61 44.2,61.2 44,72.9 42.4,76 38,76 	"/>
	<polygon class="st0" points="15.9,50.1 25.3,53.7 26.1,58 16.9,55.1 	"/>
	<polygon class="st0" points="17.9,58 26.1,60.6 29.3,74.9 21.8,73 	"/>
	<polygon class="st0" points="23,76 30,77.6 30,81 24,79.9 	"/>
	<polygon class="st0" points="31,78 37,78 37.2,82 31,81 	"/>
	<polygon class="st0" points="38,78 41,78 39.5,82 38,82 	"/>
</g>
<g id="Layer_2">
	<path class="st0" d="M16,50c1.9,3.2,52.5,12.2,74,0c0.8-1.4-9,33.4-9,33.4C69,89.5,25,86,25,86L16,50z"/>
	<path class="st1" d="M17,55c-0.3-0.8,0,3,0,3c24.3,8,66.5,2.5,70.8,1l1-3.9C55.8,64.5,17.3,55.8,17,55z"/>
	<path class="st1" d="M21.8,73l0.8,3.2c24.3,8,56.1,1.9,60.3,0.4l0.8-2.6C46.8,81,25.7,75.1,21.8,73z"/>
	<polygon class="st1" points="78.8,54 81,53.4 75.9,85 73.4,85.6 	"/>
	<polygon class="st1" points="70,55.5 71.9,55.3 68.3,86.3 66.5,86.4 	"/>
	<polygon class="st1" points="61,56 63,56 62,87 61,87 	"/>
	<polygon class="st1" points="24.5,52.9 27,53.4 31.7,83 30,83 	"/>
	<polygon class="st1" points="34.8,54.6 36.6,54.9 38,84 36,83 	"/>
	<rect x="44" y="55" class="st1" width="1" height="18"/>
	<polygon class="st1" points="57,56 58,56 43.1,86.9 40.9,87 	"/>
	<polygon class="st1" points="54.5,55.7 40,84.3 24,82 23.6,79.9 39.5,82.4 52.6,55.6 	"/>
	<polygon class="st1" points="54,86.9 53.8,62.2 52,65.6 52,87 	"/>
	<polygon class="st1" points="46,86.9 47,86.9 47,77 45.9,81 	"/>
	<path class="st0" d="M39,84c-1.3,0.8-23.2-4.2-23.9-3.8c-0.7,0.4,1.8,12.7,13.3,12.7s12.9-7,12.9-7l17.3-33.2c0,0,0.9-1.2,1.5-1
		c0.6,0.2,12.5-22.2,13.2-23.5c0.7-1.3-2.4-3.9-3.5-2.2c-1.1,1.8-14,23.5-14.6,24.5c-0.6,1.1,0.9,0.1,0.5,0.9S40.3,83.2,39,84z"/>
</g>
</svg>
