<?xml version="1.0" encoding="utf-8"?>
<!-- Generator: Adobe Illustrator 19.0.1, SVG Export Plug-In . SVG Version: 6.00 Build 0)  -->
<svg version="1.1" xmlns="http://www.w3.org/2000/svg" xmlns:xlink="http://www.w3.org/1999/xlink" x="0px" y="0px"
	 viewBox="0 0 100 100" width="100" height="100" style="enable-background:new 0 0 100 100;" xml:space="preserve">
<path d="M58.7,51.7s30-1.5,29.2-6.9-21.5-6.9-21.5-6.9Z" style="fill:#4c4d50"/><path d="M24.4,37.3c1.4-2.4,8-2.3,8-2.3s-4.7-24.2-8-24.2-8.1.6-8.5,5.3S24.2,38.2,24.4,37.3Z" style="fill:#4c4d50"/><path d="M45,85h0Z" style="fill:#4c4d50"/><path d="M33.1,59.7V59.5h0v0.2Z" style="fill:#4c4d50"/><path d="M60.8,59.9l-0.2,5.7L61,60h6L65.6,74.4h0.1l1.7-14.9C65.3,59.7,63.1,59.8,60.8,59.9Z" style="fill:#4c4d50"/><path d="M75.6,59l0.1-.3-2.9.3h2.8Z" style="fill:#4c4d50"/><path d="M29,76.4v0h0Z" style="fill:#4c4d50"/><path d="M50,85" style="fill:#4c4d50"/><path d="M52,85h0" style="fill:#4c4d50"/><path d="M88,48l-0.6.3L79,51.5v0.1l-0.6,3.5c2.3-.5,4.6-1,6.9-1.6a2.92,2.92,0,0,1,.9-0.2c0.2-.1.4-0.1,0.6-0.2C86.8,53.1,88.2,47.6,88,48Z" style="fill:#4c4d50"/><path d="M85.5,57.1a71.56,71.56,0,0,1-7.6,1.3H77.8L75.4,73.1a0.6,0.6,0,0,0,.4-0.1c1.9-.3,3.8-0.6,5.7-1h0.1S83,67.2,84,63.1c0.6-2.1,1.2-4.2,1.7-6.1A0.35,0.35,0,0,1,85.5,57.1Z" style="fill:#4c4d50"/><path d="M80.9,74.6a0.2,0.2,0,0,0-.2.1A52.6,52.6,0,0,1,75,76l-0.9,5.6L74,83l1.1-.2c1.3-.3,3.2-0.7,3.9-1.4s1.2-3.5,1.5-5.3C80.6,75.6,80.9,74.6,80.9,74.6Z" style="fill:#4c4d50"/><path d="M72.6,76.4c-1.6.3-3.5,0.6-5.4,0.8l-0.8,7.2v0.4c1.8-.2,3.5-0.4,5.1-0.7l1.1-7.7h0Z" style="fill:#4c4d50"/><path d="M72.8,59l-3.6.3-0.5,4.1L67.5,74.1a1.27,1.27,0,0,0,.6-0.1c1.7-.2,3.3-0.4,5.1-0.7l2.5-14.4H72.8V59Z" style="fill:#4c4d50"/><path d="M69.9,53.1v0.2h0l-0.4,3.1c2.1-.2,4.2-0.6,6.4-0.9a0.37,0.37,0,0,0,.3-0.1l0.5-3.2V52h0Z" style="fill:#4c4d50"/><path d="M62.6,54H61v0.1l-0.1,3.1c1-.1,2.1-0.1,3.1-0.2l3.6-.3L67.9,54l0.1-.4C66.2,53.7,64.4,53.9,62.6,54Z" style="fill:#4c4d50"/><path d="M61,60l-0.4,5.6-0.3,9.2c1.7-.1,3.4-0.3,5.2-0.5l1.4-14.4H61V60Z" style="fill:#4c4d50"/><path d="M65.3,77.4H65c-1.5.2-3.1,0.3-4.7,0.4l-0.2,6.9V85h4.5V84.4l0.1-.7Z" style="fill:#4c4d50"/><path d="M56,54l-0.1.2-0.5,1-1.1,2.2h0.2c1.5,0,3-.1,4.5-0.1V54H56Z" style="fill:#4c4d50"/><path d="M59,60c-2,.1-4,0.2-6,0.2l-0.1.2-1.1,2.2,0.1,12.6c2.1,0,4.3-.1,6.5-0.3h0.5L59,60h0Z" style="fill:#4c4d50"/><path d="M45.7,75.3H50V66.4Z" style="fill:#4c4d50"/><path d="M59,77.9c-2.2.1-4.6,0.3-7,.3H51.9L52,84.9V85h7V77.9h0Z" style="fill:#4c4d50"/><path d="M50,85V78.2c-1.6,0-3.3,0-5-.1v6.8C46.6,85,48.3,85,50,85Z" style="fill:#4c4d50"/><path d="M47.3,54L43,53.7v3.5c1.9,0.1,3.8.2,5.7,0.2l1.6-3.3,0.1-.1H47.3Z" style="fill:#4c4d50"/><path d="M43,60.1v9l4.3-8.8,0.1-.2A32.3,32.3,0,0,1,43,60.1Z" style="fill:#4c4d50"/><path d="M34.6,52.9v0.3l0.2,3.4L42,57.2V53.7Z" style="fill:#4c4d50"/><path d="M33.7,73.7l-0.6-14V59.5c-2.3-.2-4.6-0.5-6.8-0.9H26.1l2.4,15c1.5,0.3,3.3.6,5.2,0.8V73.7Z" style="fill:#4c4d50"/><path d="M42,71h0V60.1c-2.3-.1-4.7-0.2-7-0.4H34.9l0.7,15c1.4,0.2,2.9.3,4.5,0.4Z" style="fill:#4c4d50"/><path d="M33.9,79.8l-0.1-2.6c-1.6-.2-3.2-0.5-4.8-0.8v0.2l0.4,2.5v0.1l4.5,0.6h0Z" style="fill:#4c4d50"/><path d="M38.4,77.7L36,77.4H35.8l0.1,2.7,1.6,0.2,1.3-2.6A0.53,0.53,0,0,1,38.4,77.7Z" style="fill:#4c4d50"/><path d="M85.8,57l0.8-3.1c-0.3.9-.5,2-0.8,3.1h0Z" style="fill:#fff"/><path d="M59,60h0Z" style="fill:#fff"/><path d="M86.2,53.3a2.92,2.92,0,0,1-.9.2l0.9-.2h0Z" style="fill:#fff"/><path d="M72.8,59H69.3v0.3Z" style="fill:#fff"/><path d="M81.6,72v0.2h0.1L81.6,72h0Z" style="fill:#fff"/><path d="M59,77.9h0" style="fill:#fff"/><path d="M58.7,75h0Z" style="fill:#fff"/><path d="M76.8,52.1h0Z" style="fill:#fff"/><path d="M76.8,52.1h0v0Z" style="fill:#fff"/><path d="M66.3,84.3h0Z" style="fill:#fff"/><path d="M69.9,53.3h0Z" style="fill:#fff"/><path d="M69.2,59.3H69l-0.3,4.1Z" style="fill:#fff"/><path d="M64.5,84.4l0.1-.7Z" style="fill:#fff"/><path d="M69.2,59H69v0.4h0.2V59Z" style="fill:#fff"/><path d="M67.2,76.7H66.8v0.5h0.4V76.7Z" style="fill:#fff"/><path d="M60,84.7v0Z" style="fill:#fff"/><path d="M60.6,65.6L60,74.9h0.3Z" style="fill:#fff"/><path d="M60,74.9V75h0.3V74.9H60Z" style="fill:#fff"/><path d="M28.3,80.9c0.2,0,.3.1,0.5,0.1h0.1Z" style="fill:#fff"/><path d="M28,75.6l-1-.2L27.1,76c0.3,0.1.6,0.1,0.9,0.2V75.6Z" style="fill:#fff"/><path d="M41.1,84.9h0Z" style="fill:#fff"/><polygon points="30.81 68.4 30.81 68.3 29.41 71.3 27.91 74.2 30.91 74.2 30.91 74.2 30.91 74.1 30.81 68.4" style="fill:#4c4d50"/><polygon points="34.21 49.6 34.31 49.4 34.31 49.4 34.21 49.6" style="fill:#fff"/><polygon points="14.51 68 11.31 67.5 14.51 68.1 14.51 68" style="fill:#fff"/><polygon points="14.91 68.1 14.51 68 14.51 68.1 14.91 68.2 14.91 68.1" style="fill:#fff"/><path d="M50,85h0Z" style="fill:#fff"/><path d="M51.8,60.2h0Z" style="fill:#fff"/><path d="M44.9,75.3h0L45,75Z" style="fill:#fff"/><path d="M21.9,79.7h0L22,80Z" style="fill:#4c4d50"/><path d="M28,80.9V81h0.8c-0.2,0-.3-0.1-0.5-0.1H28Z" style="fill:#4c4d50"/><path d="M22.4,50.9c-1.3-.3-8.2-2.7-8.2-2.7L14,48.1,13.9,48l1,4.9a73.06,73.06,0,0,0,8.4,1.9A37.5,37.5,0,0,1,22.4,50.9Z" style="fill:#4c4d50"/><path d="M51.7,51.5c0.5-.7-1.4-1.3-1.1-2.6S58.9,37,57,37H48.8s-35.7,2.9-35.7,7.4S39.3,52.5,51.7,51.5Z" style="fill:#4c4d50"/><path d="M32.8,53V52.7c-2.8-.4-5.5-0.8-7.8-1.3h0L25.1,52l0.5,3.3c2.2,0.3,4.6.7,7.3,1Z" style="fill:#4c4d50"/><path d="M21.9,79.7h0L22,80Z" style="fill:none"/><path d="M27.1,76c-2-.5-4-1-6-1.6-0.2-.1-0.3-0.1-0.5-0.2l1,3.7,2.8,0.4,3.2,0.5Z" style="fill:#4c4d50"/><path d="M26.5,72.7L23.9,58.5l-0.1-.3-2.7-.6c-1.7-.4-3.4-0.8-5-1.3H16L18.5,66l1.3,5h0a27.59,27.59,0,0,0,6.8,2.2Z" style="fill:#4c4d50"/><path d="M67.8,24c-1.1,1.8-14,23.5-14.6,24.5s0.9,0.1.5,0.9c-0.1.2-.9,1.8-2.1,4.3a1.06,1.06,0,0,0-.2.5c-0.5,1-1,2.1-1.6,3.3-0.4.9-.9,1.8-1.4,2.8-2.4,4.9-5.2,10.5-7.5,14.9-0.5,1-1,1.9-1.4,2.7A25.94,25.94,0,0,1,37,82.1a0.75,0.75,0,0,1-.5.1L28,81h0c-2-.4-4.1-0.8-6-1.2,0,0-8.6-1.7-8.8-1.5C12.5,78.7,15,91,26.5,91c8.9,0,11.7-4.2,12.6-6.1a2.32,2.32,0,0,0,.3-0.9l3.1-5.9L44,75.3l7.8-15,1.5-2.8L55,54.3l1.8-3.5s0.9-1.2,1.5-1S70.8,27.6,71.5,26.3C72,24.9,68.9,22.3,67.8,24Z" style="fill:#4c4d50"/></svg>