<?xml version="1.0" encoding="utf-8"?>
<!-- Generator: Adobe Illustrator 19.0.1, SVG Export Plug-In . SVG Version: 6.00 Build 0)  -->
<svg version="1.1" xmlns="http://www.w3.org/2000/svg" xmlns:xlink="http://www.w3.org/1999/xlink" x="0px" y="0px"
	 viewBox="0 0 100 100" width="100" height="100" style="enable-background:new 0 0 100 100;" xml:space="preserve">
<path style="fill:#4C4D50" d="M76.3,31.9c2.7,1.2,8.1,5.9,8.1,8.2s-8.6,6.2-10.2,6.2s-5.2-4.1-5.2-5.8C69.1,38.8,73.6,30.7,76.3,31.9z"/>
<path style="fill:#4C4D50" d="M84.8,63.2c0,0,3.9-1,1.7,3.3c-2.2,4.3-14.6,12.5-27.7,13.4c-10,1.2-14.3,0-14.3,0s-7.3-0.8-14.1-3.5
	C18.1,71,19.3,64.6,19.3,64.6s0.3-2.9,3.2-2.3s5.7,8.2,12.1,9.9c6.5,1.7,20.6,3.8,27.1,2.3C68.3,72.9,75.9,73.4,84.8,63.2z"/>
<path style="fill:#4C4D50" d="M20.9,29.2c-1.6,0.7-3.2,3.3-3.2,5.1c0,1.9,2.4,4.6,3.9,5c1.5,0.4,5.8-0.9,6.7-0.9S22.5,28.6,20.9,29.2z"/>
<path style="fill:#4C4D50" d="M28.4,22.5c0,0,1,3,2.4,2.7c1.3-0.3,4.2-1.1,6.3-0.9c2.1,0.3,3.4,14.1,2.6,16.6c0.6,2.4,5.7,4.6,6.6,4.7
	s3.9,0.5,5.2,0c1.3-0.5,0.9-1.8,0.9-3c0-1.2-5.5-1.3-6.5-4.1c-1.3-3.6-1.5-9.8-2-13c-0.1-3-7.1-6.7-7.1-6.7s0.1-3.2-1.5-3.2
	c-1.6,0-1.3,3.4-1.3,3.4S29.6,18.8,28.4,22.5z"/>
<path style="fill:#4C4D50" d="M44.6,46.7c-2,0.8-1.1,2.3,0,3.4c1.1,1.2,3.6,6.7,5.4,6.7s6,0.4,8.1,0s3.7-6.4,3.7-6.4c0.5-3.1,1.1-5.5,1.1-7.5
	s-8,0-8,0s-0.9,3.7-2.6,4.4C50.7,48.1,46,46.2,44.6,46.7z"/>
<path style="fill:#4C4D50" d="M57.6,58.8c0.5-0.4,10.3-7.6,7.8-15c3.7-0.9,7.8,5.8,7.8,5.8s-1,1,0,5.1c1,4.1,7.3,14,7.3,14l-9.3,4.3
	C71.3,73.1,66.6,59.6,57.6,58.8z"/>
<path style="fill:#4C4D50" d="M26.3,66.6c7.8-5.2,8.1-17,8.1-17s0.9-9.8-1.1-11.9c-4.2,0.8-10.3-8.4-10.3-10c0-1.6,3.3-3.3,4.6-2.7
	c1.3,0.6-0.6,1.4,1.1,2.3c1.7,0.9,5.4-2.1,7.6-0.5c2.2,1.6,1.6,12.6,1.6,12.6l1.4,5.7l1.9,4.5c0,0,4.5,8.2,7.7,8.2
	c-9.8,2.1-14.3,14.4-14.3,14.4S18.5,71.9,26.3,66.6z"/>
</svg>
